<?plantuml 1.2026.2beta3?><svg xmlns="http://www.w3.org/2000/svg" xmlns:xlink="http://www.w3.org/1999/xlink" contentStyleType="text/css" data-diagram-type="DESCRIPTION" height="1787.5px" preserveAspectRatio="none" style="width:708px;height:1787px;" version="1.1" viewBox="0 0 708 1787" width="708.3333px" zoomAndPan="magnify"><defs><linearGradient id="gxx5pmd86h53a0" x1="50%" x2="50%" y1="0%" y2="100%"><stop offset="0%" stop-color="#D3F198"/><stop offset="100%" stop-color="#B5E853"/></linearGradient></defs><g><!--entity Eleve--><g class="entity" data-qualified-name="Eleve" data-source-line="4" id="ent0002"><ellipse cx="63.3663" cy="669.7917" fill="url(#gxx5pmd86h53a0)" rx="8.3333" ry="8.3333" style="stroke:#D3F198;stroke-width:1.0417;"/><path d="M63.3663,678.125 L63.3663,706.25 M49.8246,686.4583 L76.9079,686.4583 M63.3663,706.25 L49.8246,721.875 M63.3663,706.25 L76.9079,721.875" fill="none" style="stroke:#D3F198;stroke-width:1.0417;"/><text fill="#EAEAEA" font-family="'Verdana'" font-size="12.5" lengthAdjust="spacing" textLength="34.1492" x="46.2917" y="740.7694">&#201;l&#232;ve</text></g><!--entity Parent--><g class="entity" data-qualified-name="Parent" data-source-line="5" id="ent0003"><ellipse cx="63.3629" cy="1170.8333" fill="url(#gxx5pmd86h53a0)" rx="8.3333" ry="8.3333" style="stroke:#D3F198;stroke-width:1.0417;"/><path d="M63.3629,1179.1667 L63.3629,1207.2917 M49.8212,1187.5 L76.9046,1187.5 M63.3629,1207.2917 L49.8212,1222.9167 M63.3629,1207.2917 L76.9046,1222.9167" fill="none" style="stroke:#D3F198;stroke-width:1.0417;"/><text fill="#EAEAEA" font-family="'Verdana'" font-size="12.5" lengthAdjust="spacing" textLength="40.8508" x="42.9375" y="1241.8111">Parent</text></g><!--entity Prof--><g class="entity" data-qualified-name="Prof" data-source-line="6" id="ent0004"><ellipse cx="63.3661" cy="1539.5833" fill="url(#gxx5pmd86h53a0)" rx="8.3333" ry="8.3333" style="stroke:#D3F198;stroke-width:1.0417;"/><path d="M63.3661,1547.9167 L63.3661,1576.0417 M49.8245,1556.25 L76.9078,1556.25 M63.3661,1576.0417 L49.8245,1591.6667 M63.3661,1576.0417 L76.9078,1591.6667" fill="none" style="stroke:#D3F198;stroke-width:1.0417;"/><text fill="#EAEAEA" font-family="'Verdana'" font-size="12.5" lengthAdjust="spacing" textLength="69.8364" x="28.4479" y="1610.5611">Enseignant</text></g><!--entity Admin--><g class="entity" data-qualified-name="Admin" data-source-line="7" id="ent0005"><ellipse cx="63.3647" cy="205.2083" fill="url(#gxx5pmd86h53a0)" rx="8.3333" ry="8.3333" style="stroke:#D3F198;stroke-width:1.0417;"/><path d="M63.3647,213.5417 L63.3647,241.6667 M49.823,221.875 L76.9063,221.875 M63.3647,241.6667 L49.823,257.2917 M63.3647,241.6667 L76.9063,257.2917" fill="none" style="stroke:#D3F198;stroke-width:1.0417;"/><text fill="#EAEAEA" font-family="'Verdana'" font-size="12.5" lengthAdjust="spacing" textLength="93.396" x="16.6667" y="276.1861">Administrateur</text></g><!--entity Paiement--><g class="entity" data-qualified-name="Paiement" data-source-line="8" id="ent0006"><ellipse cx="288.2657" cy="959.375" fill="url(#gxx5pmd86h53a0)" rx="8.3333" ry="8.3333" style="stroke:#D3F198;stroke-width:1.0417;"/><path d="M288.2657,967.7083 L288.2657,995.8333 M274.724,976.0417 L301.8073,976.0417 M288.2657,995.8333 L274.724,1011.4583 M288.2657,995.8333 L301.8073,1011.4583" fill="none" style="stroke:#D3F198;stroke-width:1.0417;"/><text fill="#EAEAEA" font-family="'Verdana'" font-size="12.5" lengthAdjust="spacing" textLength="137.323" x="219.6042" y="1030.3528">Syst&#232;me de paiement</text></g><!--entity Bot--><g class="entity" data-qualified-name="Bot" data-source-line="9" id="ent0007"><ellipse cx="63.3682" cy="25" fill="url(#gxx5pmd86h53a0)" rx="8.3333" ry="8.3333" style="stroke:#D3F198;stroke-width:1.0417;"/><path d="M63.3682,33.3333 L63.3682,61.4583 M49.8266,41.6667 L76.9099,41.6667 M63.3682,61.4583 L49.8266,77.0833 M63.3682,61.4583 L76.9099,77.0833" fill="none" style="stroke:#D3F198;stroke-width:1.0417;"/><text fill="#EAEAEA" font-family="'Verdana'" font-size="12.5" lengthAdjust="spacing" textLength="49.6948" x="38.5208" y="95.9778">Chatbot</text></g><!--entity Cr?er un compte / Se connecter--><g class="entity" data-qualified-name="Cr.er un compte . Se connecter" data-source-line="11" id="ent0008"><ellipse cx="288.2624" cy="1174.4629" fill="url(#gxx5pmd86h53a0)" rx="109.4499" ry="24.39" style="stroke:#D3F198;stroke-width:2.0833;"/><text fill="#151515" font-family="'Verdana'" font-size="12.5" lengthAdjust="spacing" textLength="199.8169" x="188.3539" y="1178.0925">Cr&#233;er un compte / Se connecter</text></g><!--entity Rechercher un enseignant--><g class="entity" data-qualified-name="Rechercher un enseignant" data-source-line="12" id="ent0010"><ellipse cx="288.2575" cy="892.1619" fill="url(#gxx5pmd86h53a0)" rx="93.3096" ry="21.1619" style="stroke:#D3F198;stroke-width:2.0833;"/><text fill="#151515" font-family="'Verdana'" font-size="12.5" lengthAdjust="spacing" textLength="165.0452" x="205.7349" y="895.7915">Rechercher un enseignant</text></g><!--entity Consulter profil enseignant--><g class="entity" data-qualified-name="Consulter profil enseignant" data-source-line="13" id="ent0012"><ellipse cx="288.2639" cy="588.0049" fill="url(#gxx5pmd86h53a0)" rx="95.3889" ry="21.5778" style="stroke:#D3F198;stroke-width:2.0833;"/><text fill="#151515" font-family="'Verdana'" font-size="12.5" lengthAdjust="spacing" textLength="169.5801" x="203.4739" y="591.6344">Consulter profil enseignant</text></g><!--entity R?server un cours en ligne--><g class="entity" data-qualified-name="R.server un cours en ligne" data-source-line="14" id="ent0014"><ellipse cx="288.2557" cy="742.1616" fill="url(#gxx5pmd86h53a0)" rx="94.6099" ry="21.422" style="stroke:#D3F198;stroke-width:2.0833;"/><text fill="#151515" font-family="'Verdana'" font-size="12.5" lengthAdjust="spacing" textLength="167.8833" x="204.3141" y="745.7911">R&#233;server un cours en ligne</text></g><!--entity Rejoindre un cours en ligne--><g class="entity" data-qualified-name="Rejoindre un cours en ligne" data-source-line="15" id="ent0016"><ellipse cx="288.2632" cy="425.5026" fill="url(#gxx5pmd86h53a0)" rx="96.3153" ry="21.7631" style="stroke:#D3F198;stroke-width:2.0833;"/><text fill="#151515" font-family="'Verdana'" font-size="12.5" lengthAdjust="spacing" textLength="171.5942" x="202.4661" y="429.1322">Rejoindre un cours en ligne</text></g><!--entity Acc?der au chatbot--><g class="entity" data-qualified-name="Acc.der au chatbot" data-source-line="16" id="ent0018"><ellipse cx="288.2618" cy="817.1628" fill="url(#gxx5pmd86h53a0)" rx="74.1993" ry="17.3399" style="stroke:#D3F198;stroke-width:2.0833;"/><text fill="#151515" font-family="'Verdana'" font-size="12.5" lengthAdjust="spacing" textLength="122.1191" x="227.2022" y="820.7923">Acc&#233;der au chatbot</text></g><!--entity ?valuer un enseignant--><g class="entity" data-qualified-name=".valuer un enseignant" data-source-line="17" id="ent0020"><ellipse cx="288.2585" cy="665.0809" fill="url(#gxx5pmd86h53a0)" rx="82.2794" ry="18.9559" style="stroke:#D3F198;stroke-width:2.0833;"/><text fill="#151515" font-family="'Verdana'" font-size="12.5" lengthAdjust="spacing" textLength="140.6006" x="217.9582" y="668.7104">&#201;valuer un enseignant</text></g><!--entity Consulter historique des cours--><g class="entity" data-qualified-name="Consulter historique des cours" data-source-line="18" id="ent0022"><ellipse cx="288.2638" cy="506.7548" fill="url(#gxx5pmd86h53a0)" rx="105.1805" ry="23.5361" style="stroke:#D3F198;stroke-width:2.0833;"/><text fill="#151515" font-family="'Verdana'" font-size="12.5" lengthAdjust="spacing" textLength="190.7043" x="192.9116" y="510.3844">Consulter historique des cours</text></g><!--entity G?rer profil ?l?ve--><g class="entity" data-qualified-name="G.rer profil .l.ve" data-source-line="21" id="ent0025"><ellipse cx="288.2631" cy="1251.5425" fill="url(#gxx5pmd86h53a0)" rx="67.961" ry="16.6466" style="stroke:#D3F198;stroke-width:2.0833;"/><text fill="#151515" font-family="'Verdana'" font-size="12.5" lengthAdjust="spacing" textLength="109.3018" x="233.6122" y="1255.172">G&#233;rer profil &#233;l&#232;ve</text></g><!--entity R?server un cours--><g class="entity" data-qualified-name="R.server un cours" data-source-line="23" id="ent0028"><ellipse cx="288.2569" cy="1321.3363" fill="url(#gxx5pmd86h53a0)" rx="70.5798" ry="16.68" style="stroke:#D3F198;stroke-width:2.0833;"/><text fill="#151515" font-family="'Verdana'" font-size="12.5" lengthAdjust="spacing" textLength="113.8306" x="231.3416" y="1324.9658">R&#233;server un cours</text></g><!--entity Effectuer un paiement--><g class="entity" data-qualified-name="Effectuer un paiement" data-source-line="24" id="ent0030"><ellipse cx="615.2066" cy="994.2496" fill="url(#gxx5pmd86h53a0)" rx="82.0816" ry="18.9163" style="stroke:#D3F198;stroke-width:2.0833;"/><text fill="#151515" font-family="'Verdana'" font-size="12.5" lengthAdjust="spacing" textLength="140.155" x="545.1291" y="997.8792">Effectuer un paiement</text></g><!--entity Consulter cours pass?s--><g class="entity" data-qualified-name="Consulter cours pass.s" data-source-line="25" id="ent0032"><ellipse cx="288.2644" cy="1094.2466" fill="url(#gxx5pmd86h53a0)" rx="84.1499" ry="19.33" style="stroke:#D3F198;stroke-width:2.0833;"/><text fill="#151515" font-family="'Verdana'" font-size="12.5" lengthAdjust="spacing" textLength="144.7998" x="215.8645" y="1097.8762">Consulter cours pass&#233;s</text></g><!--entity Compl?ter profil--><g class="entity" data-qualified-name="Compl.ter profil" data-source-line="28" id="ent0035"><ellipse cx="288.2591" cy="1539.0405" fill="url(#gxx5pmd86h53a0)" rx="63.4049" ry="16.5822" style="stroke:#D3F198;stroke-width:2.0833;"/><text fill="#151515" font-family="'Verdana'" font-size="12.5" lengthAdjust="spacing" textLength="101.4221" x="237.5481" y="1542.6701">Compl&#233;ter profil</text></g><!--entity G?rer disponibilit?s--><g class="entity" data-qualified-name="G.rer disponibilit.s" data-source-line="29" id="ent0037"><ellipse cx="288.258" cy="1609.8745" fill="url(#gxx5pmd86h53a0)" rx="74.008" ry="17.3016" style="stroke:#D3F198;stroke-width:2.0833;"/><text fill="#151515" font-family="'Verdana'" font-size="12.5" lengthAdjust="spacing" textLength="121.6736" x="227.4212" y="1613.5041">G&#233;rer disponibilit&#233;s</text></g><!--entity Accepter r?servation--><g class="entity" data-qualified-name="Accepter r.servation" data-source-line="30" id="ent0039"><ellipse cx="288.2625" cy="1681.7483" fill="url(#gxx5pmd86h53a0)" rx="77.9604" ry="18.0921" style="stroke:#D3F198;stroke-width:2.0833;"/><text fill="#151515" font-family="'Verdana'" font-size="12.5" lengthAdjust="spacing" textLength="130.7983" x="222.8633" y="1685.3779">Accepter r&#233;servation</text></g><!--entity D?marrer cours en ligne--><g class="entity" data-qualified-name="D.marrer cours en ligne" data-source-line="31" id="ent0041"><ellipse cx="288.2622" cy="1756.7503" fill="url(#gxx5pmd86h53a0)" rx="87.5538" ry="20.0108" style="stroke:#D3F198;stroke-width:2.0833;"/><text fill="#151515" font-family="'Verdana'" font-size="12.5" lengthAdjust="spacing" textLength="152.3804" x="212.072" y="1760.3799">D&#233;marrer cours en ligne</text></g><!--entity Consulter ?valuations--><g class="entity" data-qualified-name="Consulter .valuations" data-source-line="32" id="ent0043"><ellipse cx="288.2558" cy="1467.1678" fill="url(#gxx5pmd86h53a0)" rx="80.3183" ry="18.5637" style="stroke:#D3F198;stroke-width:2.0833;"/><text fill="#151515" font-family="'Verdana'" font-size="12.5" lengthAdjust="spacing" textLength="136.1694" x="220.1711" y="1470.7974">Consulter &#233;valuations</text></g><!--entity G?rer utilisateurs--><g class="entity" data-qualified-name="G.rer utilisateurs" data-source-line="34" id="ent0045"><ellipse cx="288.2593" cy="132.7894" fill="url(#gxx5pmd86h53a0)" rx="67.7281" ry="16.6435" style="stroke:#D3F198;stroke-width:2.0833;"/><text fill="#151515" font-family="'Verdana'" font-size="12.5" lengthAdjust="spacing" textLength="108.8989" x="233.8099" y="136.4189">G&#233;rer utilisateurs</text></g><!--entity Valider enseignants--><g class="entity" data-qualified-name="Valider enseignants" data-source-line="35" id="ent0047"><ellipse cx="288.2638" cy="203.6298" fill="url(#gxx5pmd86h53a0)" rx="75.0242" ry="17.5048" style="stroke:#D3F198;stroke-width:2.0833;"/><text fill="#151515" font-family="'Verdana'" font-size="12.5" lengthAdjust="spacing" textLength="124.0356" x="226.2459" y="207.2594">Valider enseignants</text></g><!--entity Mod?rer ?valuations--><g class="entity" data-qualified-name="Mod.rer .valuations" data-source-line="36" id="ent0049"><ellipse cx="288.2598" cy="275.4957" fill="url(#gxx5pmd86h53a0)" rx="76.8535" ry="17.8707" style="stroke:#D3F198;stroke-width:2.0833;"/><text fill="#151515" font-family="'Verdana'" font-size="12.5" lengthAdjust="spacing" textLength="128.2593" x="224.1301" y="279.1253">Mod&#233;rer &#233;valuations</text></g><!--entity Superviser paiements--><g class="entity" data-qualified-name="Superviser paiements" data-source-line="37" id="ent0051"><ellipse cx="288.2593" cy="348.4185" fill="url(#gxx5pmd86h53a0)" rx="80.5822" ry="18.6164" style="stroke:#D3F198;stroke-width:2.0833;"/><text fill="#151515" font-family="'Verdana'" font-size="12.5" lengthAdjust="spacing" textLength="136.7676" x="219.8755" y="352.0481">Superviser paiements</text></g><!--entity Visioconf?rence--><g class="entity" data-qualified-name="Visioconf.rence" data-source-line="40" id="ent0054"><ellipse cx="615.2032" cy="425.5026" fill="url(#gxx5pmd86h53a0)" rx="62.2969" ry="16.5651" style="stroke:#D3F198;stroke-width:2.0833;"/><text fill="#151515" font-family="'Verdana'" font-size="12.5" lengthAdjust="spacing" textLength="99.5056" x="565.4503" y="429.1322">Visioconf&#233;rence</text></g><!--entity Fin du cours--><g class="entity" data-qualified-name="Fin du cours" data-source-line="41" id="ent0056"><ellipse cx="615.2091" cy="665.084" fill="url(#gxx5pmd86h53a0)" rx="48.9904" ry="16.3027" style="stroke:#D3F198;stroke-width:2.0833;"/><text fill="#151515" font-family="'Verdana'" font-size="12.5" lengthAdjust="spacing" textLength="76.4832" x="576.9675" y="668.7135">Fin du cours</text></g><!--entity R?pondre aux questions--><g class="entity" data-qualified-name="R.pondre aux questions" data-source-line="44" id="ent0059"><ellipse cx="288.2654" cy="59.8802" fill="url(#gxx5pmd86h53a0)" rx="87.4217" ry="19.9843" style="stroke:#D3F198;stroke-width:2.0833;"/><text fill="#151515" font-family="'Verdana'" font-size="12.5" lengthAdjust="spacing" textLength="152.0874" x="212.2217" y="63.5097">R&#233;pondre aux questions</text></g><!--link Eleve to Cr?er un compte / Se connecter--><g class="link" data-entity-1="ent0002" data-entity-2="ent0008" data-link-type="dependency" data-source-line="11" id="lnk9"><path d="M63.8542,749.1146 C65.1979,834.125 80.0417,1021.0729 178.8125,1131.75 C188.2396,1142.3125 194.9425,1147.6668 207.9529,1153.6876" fill="none" id="Eleve-to-Cr&#233;er un compte / Se connecter" style="stroke:#B5E853;stroke-width:3.125;"/><polygon fill="#B5E853" points="213.625,1156.3125,206.8668,1148.5938,208.8983,1154.1251,203.367,1156.1566,213.625,1156.3125" style="stroke:#B5E853;stroke-width:3.125;"/></g><!--link Eleve to Rechercher un enseignant--><g class="link" data-entity-1="ent0002" data-entity-2="ent0010" data-link-type="dependency" data-source-line="12" id="lnk11"><path d="M85.9896,743.6458 C106.1146,776.7708 138.9792,823.4583 178.8125,852.5833 C192.5625,862.6354 203.266,868.2275 219.266,874.0816" fill="none" id="Eleve-to-Rechercher un enseignant" style="stroke:#B5E853;stroke-width:3.125;"/><polygon fill="#B5E853" points="225.1354,876.2292,217.7629,869.0949,220.2442,874.4395,214.8995,876.9208,225.1354,876.2292" style="stroke:#B5E853;stroke-width:3.125;"/></g><!--link Eleve to Consulter profil enseignant--><g class="link" data-entity-1="ent0002" data-entity-2="ent0012" data-link-type="dependency" data-source-line="13" id="lnk13"><path d="M85.7813,687.9375 C108.0625,671.0729 144.4583,645.0938 178.8125,627.5833 C195.2396,619.2083 207.9697,613.8455 225.0842,607.7205" fill="none" id="Eleve-to-Consulter profil enseignant" style="stroke:#B5E853;stroke-width:3.125;"/><polygon fill="#B5E853" points="230.9688,605.6146,220.738,604.8505,226.065,607.3695,223.546,612.6965,230.9688,605.6146" style="stroke:#B5E853;stroke-width:3.125;"/></g><!--link Eleve to R?server un cours en ligne--><g class="link" data-entity-1="ent0002" data-entity-2="ent0014" data-link-type="dependency" data-source-line="14" id="lnk15"><path d="M85.7708,708.2604 C114.5313,713.1042 161.0241,720.9319 205.2949,728.3798" fill="none" id="Eleve-to-R&#233;server un cours en ligne" style="stroke:#B5E853;stroke-width:3.125;"/><polygon fill="#B5E853" points="211.4583,729.4167,202.9045,723.7524,206.3222,728.5526,201.522,731.9702,211.4583,729.4167" style="stroke:#B5E853;stroke-width:3.125;"/></g><!--link Eleve to Rejoindre un cours en ligne--><g class="link" data-entity-1="ent0002" data-entity-2="ent0016" data-link-type="dependency" data-source-line="15" id="lnk17"><path d="M74.7083,660.0313 C89.2188,606.6667 120.6563,517.9375 178.8125,465.0833 C190.375,454.5729 199.137,449.0665 213.8245,443.3269" fill="none" id="Eleve-to-Rejoindre un cours en ligne" style="stroke:#B5E853;stroke-width:3.125;"/><polygon fill="#B5E853" points="219.6458,441.0521,209.3973,440.5835,214.7947,442.9478,212.4304,448.3452,219.6458,441.0521" style="stroke:#B5E853;stroke-width:3.125;"/></g><!--link Eleve to Acc?der au chatbot--><g class="link" data-entity-1="ent0002" data-entity-2="ent0018" data-link-type="dependency" data-source-line="16" id="lnk19"><path d="M86.0833,721.9583 C108.3021,739.0313 144.375,764.9375 178.8125,781.75 C197.3125,790.7917 212.701,796.4928 231.5448,802.2636" fill="none" id="Eleve-to-Acc&#233;der au chatbot" style="stroke:#B5E853;stroke-width:3.125;"/><polygon fill="#B5E853" points="237.5208,804.0938,229.7769,797.3645,232.5408,802.5686,227.3367,805.3326,237.5208,804.0938" style="stroke:#B5E853;stroke-width:3.125;"/></g><!--link Eleve to ?valuer un enseignant--><g class="link" data-entity-1="ent0002" data-entity-2="ent0020" data-link-type="dependency" data-source-line="17" id="lnk21"><path d="M85.7708,700.875 C116.8125,695.3542 169.5652,685.9895 215.6902,677.7916" fill="none" id="Eleve-to-&#201;valuer un enseignant" style="stroke:#B5E853;stroke-width:3.125;"/><polygon fill="#B5E853" points="221.8438,676.6979,211.8843,674.2361,216.7158,677.6093,213.3425,682.4408,221.8438,676.6979" style="stroke:#B5E853;stroke-width:3.125;"/></g><!--link Eleve to Consulter historique des cours--><g class="link" data-entity-1="ent0002" data-entity-2="ent0022" data-link-type="dependency" data-source-line="18" id="lnk23"><path d="M86,662.9375 C105.9271,628.0729 138.4896,579.2604 178.8125,548.4167 C191.3854,538.8021 200.6393,533.4998 215.4726,527.531" fill="none" id="Eleve-to-Consulter historique des cours" style="stroke:#B5E853;stroke-width:3.125;"/><polygon fill="#B5E853" points="221.2708,525.1979,211.0181,524.8321,216.439,527.1422,214.129,532.5631,221.2708,525.1979" style="stroke:#B5E853;stroke-width:3.125;"/></g><!--link Parent to Cr?er un compte / Se connecter--><g class="link" data-entity-1="ent0003" data-entity-2="ent0008" data-link-type="dependency" data-source-line="20" id="lnk24"><path d="M89.1042,1202.2396 C114.7083,1198.6563 150.1233,1193.6923 188.6128,1188.286" fill="none" id="Parent-to-Cr&#233;er un compte / Se connecter" style="stroke:#B5E853;stroke-width:3.125;"/><polygon fill="#B5E853" points="194.8021,1187.4167,184.9387,1184.5945,189.6444,1188.1411,186.0978,1192.8468,194.8021,1187.4167" style="stroke:#B5E853;stroke-width:3.125;"/></g><!--link Parent to G?rer profil ?l?ve--><g class="link" data-entity-1="ent0003" data-entity-2="ent0025" data-link-type="dependency" data-source-line="21" id="lnk26"><path d="M89.1042,1210.7917 C124.1146,1217.9896 182.9095,1230.0842 228.8782,1239.5425" fill="none" id="Parent-to-G&#233;rer profil &#233;l&#232;ve" style="stroke:#B5E853;stroke-width:3.125;"/><polygon fill="#B5E853" points="235,1240.8021,226.6571,1234.8315,229.8985,1239.7524,224.9776,1242.9939,235,1240.8021" style="stroke:#B5E853;stroke-width:3.125;"/></g><!--link Parent to Rechercher un enseignant--><g class="link" data-entity-1="ent0003" data-entity-2="ent0010" data-link-type="dependency" data-source-line="22" id="lnk27"><path d="M71.625,1161.0417 C83.5729,1101.0104 113.0417,994.5938 178.8125,931.75 C190.3333,920.75 199.3161,915.0136 214.2744,909.2323" fill="none" id="Parent-to-Rechercher un enseignant" style="stroke:#B5E853;stroke-width:3.125;"/><polygon fill="#B5E853" points="220.1042,906.9792,209.8575,906.4724,215.246,908.8568,212.8616,914.2454,220.1042,906.9792" style="stroke:#B5E853;stroke-width:3.125;"/></g><!--link Parent to R?server un cours--><g class="link" data-entity-1="ent0003" data-entity-2="ent0028" data-link-type="dependency" data-source-line="23" id="lnk29"><path d="M89.3854,1226.5 C111.6875,1244.2396 145.8333,1269.4271 178.8125,1285.9167 C197.7604,1295.3854 213.8287,1301.3309 233.0683,1307.133" fill="none" id="Parent-to-R&#233;server un cours" style="stroke:#B5E853;stroke-width:3.125;"/><polygon fill="#B5E853" points="239.0521,1308.9375,231.2794,1302.2415,234.0656,1307.4337,228.8733,1310.2199,239.0521,1308.9375" style="stroke:#B5E853;stroke-width:3.125;"/></g><!--link Parent to Effectuer un paiement--><g class="link" data-entity-1="ent0003" data-entity-2="ent0030" data-link-type="dependency" data-source-line="24" id="lnk31"><path d="M84.0938,1250.2917 C102.7292,1286.3854 134.4792,1334.7188 178.8125,1356.75 C265.9375,1400.0521 313.1042,1404.7708 397.7083,1356.75 C534.4479,1279.1354 592.5079,1083.1605 608.2267,1019.6917" fill="none" id="Parent-to-Effectuer un paiement" style="stroke:#B5E853;stroke-width:3.125;"/><polygon fill="#B5E853" points="609.7292,1013.625,603.431,1021.7234,608.4771,1018.6806,611.5199,1023.7267,609.7292,1013.625" style="stroke:#B5E853;stroke-width:3.125;"/></g><!--link Parent to Consulter cours pass?s--><g class="link" data-entity-1="ent0003" data-entity-2="ent0032" data-link-type="dependency" data-source-line="25" id="lnk33"><path d="M89.2708,1187.125 C111.7708,1170.9271 146.2813,1147.6042 178.8125,1131.75 C196.4479,1123.1563 210.6329,1117.6004 228.7058,1111.5796" fill="none" id="Parent-to-Consulter cours pass&#233;s" style="stroke:#B5E853;stroke-width:3.125;"/><polygon fill="#B5E853" points="234.6354,1109.6042,224.4241,1108.6142,229.6941,1111.2503,227.0579,1116.5203,234.6354,1109.6042" style="stroke:#B5E853;stroke-width:3.125;"/></g><!--link Prof to Cr?er un compte / Se connecter--><g class="link" data-entity-1="ent0004" data-entity-2="ent0008" data-link-type="dependency" data-source-line="27" id="lnk34"><path d="M66.7188,1529.9583 C72.8854,1455.7292 95.5521,1306.0625 178.8125,1217.1667 C188.5625,1206.7604 195.4834,1201.4443 208.6188,1195.4339" fill="none" id="Prof-to-Cr&#233;er un compte / Se connecter" style="stroke:#B5E853;stroke-width:3.125;"/><polygon fill="#B5E853" points="214.3021,1192.8333,204.0435,1192.9453,209.566,1195.0004,207.5108,1200.523,214.3021,1192.8333" style="stroke:#B5E853;stroke-width:3.125;"/></g><!--link Prof to Compl?ter profil--><g class="link" data-entity-1="ent0004" data-entity-2="ent0035" data-link-type="dependency" data-source-line="28" id="lnk36"><path d="M103.7292,1568.2083 C139.7083,1562.4896 187.0983,1554.9602 227.0775,1548.606" fill="none" id="Prof-to-Compl&#233;ter profil" style="stroke:#B5E853;stroke-width:3.125;"/><polygon fill="#B5E853" points="233.25,1547.625,223.3372,1544.9815,228.1062,1548.4425,224.6452,1553.2116,233.25,1547.625" style="stroke:#B5E853;stroke-width:3.125;"/></g><!--link Prof to G?rer disponibilit?s--><g class="link" data-entity-1="ent0004" data-entity-2="ent0037" data-link-type="dependency" data-source-line="29" id="lnk38"><path d="M103.7292,1580.7083 C137.5833,1586.0938 180.8378,1592.9675 219.8586,1599.1654" fill="none" id="Prof-to-G&#233;rer disponibilit&#233;s" style="stroke:#B5E853;stroke-width:3.125;"/><polygon fill="#B5E853" points="226.0313,1600.1458,217.4259,1594.5601,220.8874,1599.3288,216.1187,1602.7903,226.0313,1600.1458" style="stroke:#B5E853;stroke-width:3.125;"/></g><!--link Prof to Accepter r?servation--><g class="link" data-entity-1="ent0004" data-entity-2="ent0039" data-link-type="dependency" data-source-line="30" id="lnk40"><path d="M103.9063,1602.0521 C125.3854,1616.2396 152.8125,1633.0729 178.8125,1645.2917 C197.4167,1654.0313 212.7336,1659.7658 231.494,1665.7554" fill="none" id="Prof-to-Accepter r&#233;servation" style="stroke:#B5E853;stroke-width:3.125;"/><polygon fill="#B5E853" points="237.4479,1667.6563,229.7843,1660.8356,232.4863,1666.0722,227.2498,1668.7742,237.4479,1667.6563" style="stroke:#B5E853;stroke-width:3.125;"/></g><!--link Prof to D?marrer cours en ligne--><g class="link" data-entity-1="ent0004" data-entity-2="ent0041" data-link-type="dependency" data-source-line="31" id="lnk42"><path d="M90.3333,1618.9271 C110.7813,1650.5417 141.9479,1691.8854 178.8125,1718.2083 C193.1979,1728.4792 204.6901,1734.2086 221.2943,1739.9794" fill="none" id="Prof-to-D&#233;marrer cours en ligne" style="stroke:#B5E853;stroke-width:3.125;"/><polygon fill="#B5E853" points="227.1979,1742.0313,219.7104,1735.0178,222.2782,1740.3214,216.9746,1742.8893,227.1979,1742.0313" style="stroke:#B5E853;stroke-width:3.125;"/></g><!--link Prof to Consulter ?valuations--><g class="link" data-entity-1="ent0004" data-entity-2="ent0043" data-link-type="dependency" data-source-line="32" id="lnk44"><path d="M104,1547.3958 C125.5,1533.4583 152.9271,1516.8646 178.8125,1504.6667 C197.4583,1495.875 212.8161,1490.0355 231.5557,1483.8376" fill="none" id="Prof-to-Consulter &#233;valuations" style="stroke:#B5E853;stroke-width:3.125;"/><polygon fill="#B5E853" points="237.4896,1481.875,227.2804,1480.8629,232.5447,1483.5105,229.8972,1488.7748,237.4896,1481.875" style="stroke:#B5E853;stroke-width:3.125;"/></g><!--link Admin to G?rer utilisateurs--><g class="link" data-entity-1="ent0005" data-entity-2="ent0045" data-link-type="dependency" data-source-line="34" id="lnk46"><path d="M115.5625,204.1875 C134.8125,191.7083 157.25,178.3125 178.8125,168.2083 C198.625,158.9167 215.5497,152.864 235.1851,146.9161" fill="none" id="Admin-to-G&#233;rer utilisateurs" style="stroke:#B5E853;stroke-width:3.125;"/><polygon fill="#B5E853" points="241.1667,145.1042,230.9863,143.8343,236.182,146.6141,233.4022,151.8098,241.1667,145.1042" style="stroke:#B5E853;stroke-width:3.125;"/></g><!--link Admin to Valider enseignants--><g class="link" data-entity-1="ent0005" data-entity-2="ent0047" data-link-type="dependency" data-source-line="35" id="lnk48"><path d="M115.6563,231.6146 C125.875,229.9271 136.5417,228.1771 146.5208,226.5417 C172.4063,222.3021 194.8102,218.6388 219.404,214.6388" fill="none" id="Admin-to-Valider enseignants" style="stroke:#B5E853;stroke-width:3.125;"/><polygon fill="#B5E853" points="225.5729,213.6354,215.6506,211.0278,220.4321,214.4715,216.9884,219.253,225.5729,213.6354" style="stroke:#B5E853;stroke-width:3.125;"/></g><!--link Admin to Mod?rer ?valuations--><g class="link" data-entity-1="ent0005" data-entity-2="ent0049" data-link-type="dependency" data-source-line="36" id="lnk50"><path d="M115.5208,248.2083 C147.7708,253.3333 183.4942,259.0083 217.8275,264.4666" fill="none" id="Admin-to-Mod&#233;rer &#233;valuations" style="stroke:#B5E853;stroke-width:3.125;"/><polygon fill="#B5E853" points="224,265.4479,215.3955,259.861,218.8563,264.6302,214.0871,268.0909,224,265.4479" style="stroke:#B5E853;stroke-width:3.125;"/></g><!--link Admin to Superviser paiements--><g class="link" data-entity-1="ent0005" data-entity-2="ent0051" data-link-type="dependency" data-source-line="37" id="lnk52"><path d="M115.6146,275.875 C134.8646,288.3542 157.3021,301.7604 178.8125,311.9583 C196.8438,320.5104 211.4775,326.0438 229.8317,331.9501" fill="none" id="Admin-to-Superviser paiements" style="stroke:#B5E853;stroke-width:3.125;"/><polygon fill="#B5E853" points="235.7813,333.8646,228.1333,327.0264,230.8233,332.2691,225.5806,334.9592,235.7813,333.8646" style="stroke:#B5E853;stroke-width:3.125;"/></g><!--link R?server un cours en ligne to Effectuer un paiement--><g class="link" data-entity-1="ent0014" data-entity-2="ent0030" data-link-type="dependency" data-source-line="39" id="lnk53"><path d="M349.3854,758.9792 C365.7292,764.8958 382.9688,772.4479 397.7083,781.75 C486.1042,837.5521 563.6944,929.6742 595.8194,970.445" fill="none" id="R&#233;server un cours en ligne-to-Effectuer un paiement" style="stroke:#B5E853;stroke-width:3.125;"/><polygon fill="#B5E853" points="599.6875,975.3542,597.1581,965.4116,596.4641,971.2632,590.6125,970.5692,599.6875,975.3542" style="stroke:#B5E853;stroke-width:3.125;"/><text fill="#FFFFFF" font-family="'Verdana'" font-size="12.5" lengthAdjust="spacing" textLength="60.5835" x="435.2083" y="796.4778">&#171;include&#187;</text></g><!--link Rejoindre un cours en ligne to Visioconf?rence--><g class="link" data-entity-1="ent0016" data-entity-2="ent0054" data-link-type="dependency" data-source-line="40" id="lnk55"><path d="M385.0208,425.5 C439.1042,425.5 498.8958,425.5 546.1563,425.5" fill="none" id="Rejoindre un cours en ligne-to-Visioconf&#233;rence" style="stroke:#B5E853;stroke-width:3.125;"/><polygon fill="#B5E853" points="552.4063,425.5,543.0313,421.3333,547.1979,425.5,543.0313,429.6667,552.4063,425.5" style="stroke:#B5E853;stroke-width:3.125;"/><text fill="#FFFFFF" font-family="'Verdana'" font-size="12.5" lengthAdjust="spacing" textLength="60.5835" x="435.2083" y="417.3111">&#171;include&#187;</text></g><!--link ?valuer un enseignant to Fin du cours--><g class="link" data-entity-1="ent0020" data-entity-2="ent0056" data-link-type="dependency" data-source-line="41" id="lnk57"><path d="M370.8646,665.0833 C432.3229,665.0833 508.2708,665.0833 559.6458,665.0833" fill="none" id="&#201;valuer un enseignant-to-Fin du cours" style="stroke:#B5E853;stroke-width:3.125;"/><polygon fill="#B5E853" points="565.8958,665.0833,556.5208,660.9167,560.6875,665.0833,556.5208,669.25,565.8958,665.0833" style="stroke:#B5E853;stroke-width:3.125;"/><text fill="#FFFFFF" font-family="'Verdana'" font-size="12.5" lengthAdjust="spacing" textLength="58.8318" x="436.25" y="656.8944">&#171;extend&#187;</text></g><!--link Paiement to Effectuer un paiement--><g class="link" data-entity-1="ent0006" data-entity-2="ent0030" data-link-type="dependency" data-source-line="43" id="lnk58"><path d="M362.6146,994.25 C413.2396,994.25 474.3333,994.25 526.6042,994.25" fill="none" id="Paiement-to-Effectuer un paiement" style="stroke:#B5E853;stroke-width:3.125;"/><polygon fill="#B5E853" points="532.8542,994.25,523.4792,990.0833,527.6458,994.25,523.4792,998.4167,532.8542,994.25" style="stroke:#B5E853;stroke-width:3.125;"/></g><!--link Bot to R?pondre aux questions--><g class="link" data-entity-1="ent0007" data-entity-2="ent0059" data-link-type="dependency" data-source-line="44" id="lnk60"><path d="M93.5313,59.875 C120.6667,59.875 156.2604,59.875 194.1146,59.875" fill="none" id="Bot-to-R&#233;pondre aux questions" style="stroke:#B5E853;stroke-width:3.125;"/><polygon fill="#B5E853" points="200.3646,59.875,190.9896,55.7083,195.1563,59.875,190.9896,64.0417,200.3646,59.875" style="stroke:#B5E853;stroke-width:3.125;"/></g><?plantuml-src ZLH1Rjim4Bph5TkScaEGUn4OI5qtfm953FJEaAk8BKsgIz98dv2VHE_WnxeaBKjgODS70x9co9sPtTM7qE4EeHFo5r9Zi0qG791-xW8eJIY3ThPfX0oEu2gzclIsnoiG7ZO6zpW2tmMX3ULzVHo1ZVMedwqOGNBj2DshdRRQ1n818nMul1hnxHyVqXkBKmYzq2ppMA7-6OdhJeGdLx7FBZHDaGOtDolukAOq846q8Dsk3mYti4L-jfQj8LtFkOyeEwJyotmyAb-GrixwQFWezEn5crEynpHufFrOEv9d9XXcuZz5Vpfj5U5_UFTIfa7nTIA2h8ONU7hT2nClbDvnx8xqxvZ3zRNiTTFKrbqOt9pya0QQ4ab3cP8bvNIu2zQxr9Rufcsv_C7cE1HBokIofjaBx_dMR8_bNMfkeZB1f65g-1my-5RQzyxg9srqAAKc1hSD-toOgZEHzsbE-9A6dI0wofsQFzSmMaf3xdAv93ig-xAG4WEBy6MZc333VmYZy_XCoI_nRqxL6vObPenjxDc0zZc9G_9Pmzb9FzSr-0HtTzfA4nMkLitPJJXuq5uxxbARbLg9xwuuiGJrz5Ssek9Xgif9V0be5Hzina_AsIdZRyjnIhdVMQc8By1Rv6jQVm40?></g></svg>